<?xml version="1.0" encoding="UTF-8" standalone="no" ?>
<!DOCTYPE svg PUBLIC "-//W3C//DTD SVG 1.1//EN" "http://www.w3.org/Graphics/SVG/1.1/DTD/svg11.dtd">
<svg xmlns="http://www.w3.org/2000/svg" xmlns:xlink="http://www.w3.org/1999/xlink" version="1.1" width="500" height="500" viewBox="0 0 500 500" xml:space="preserve">
<desc>Created with Fabric.js 4.6.0</desc>
<defs>
</defs>
<g transform="matrix(3.32 0 0 3.32 250 250)" id="_Zo-TaQb2mYTLlpLQlftG"  >
<path style="stroke: rgb(58,229,227); stroke-width: 10; stroke-dasharray: none; stroke-linecap: butt; stroke-dashoffset: 0; stroke-linejoin: miter; stroke-miterlimit: 4; fill: rgb(47,15,47); fill-opacity: 0; fill-rule: nonzero; opacity: 1;" vector-effect="non-scaling-stroke"  transform=" translate(0, 0)" d="M -71.53393 -62.39615 C -71.53393 -67.4428 -67.44281 -71.53392 -62.396159999999995 -71.53392 L 62.396150000000006 -71.53392 L 62.396150000000006 -71.53392 C 67.4428 -71.53392 71.53392000000001 -67.44279999999999 71.53392000000001 -62.39614999999999 L 71.53392000000001 62.39616000000001 L 71.53392000000001 62.39616000000001 C 71.53392000000001 67.44281000000001 67.4428 71.53393000000001 62.396150000000006 71.53393000000001 L -62.396159999999995 71.53393000000001 L -62.396159999999995 71.53393000000001 C -67.44281 71.53393000000001 -71.53393 67.44281000000001 -71.53393 62.39616000000001 z" stroke-linecap="round" />
</g>
<g transform="matrix(2.4 0 0 2.4 128.09 193.93)" style="" id="aKtQ5_ppm-Raq8Ckj87ze"  >
		<text xml:space="preserve" font-family="Open Sans" font-size="20" font-style="normal" font-weight="normal" line-height="1.16" style="stroke: none; stroke-width: 1; stroke-dasharray: none; stroke-linecap: butt; stroke-dashoffset: 0; stroke-linejoin: miter; stroke-miterlimit: 4; fill: rgb(0,0,0); fill-rule: nonzero; opacity: 1; white-space: pre;" ><tspan x="-19.92" y="6.28" ></tspan></text>
</g>
<g transform="matrix(2.86 0 0 2.86 250 250)" style="" id="SU9sUOswxLrSiYXisGTUx"  >
		<text xml:space="preserve" font-family="Black Ops One" font-size="44" font-style="normal" font-weight="normal" letter-spacing="0.22" line-height="1.16" style="stroke: none; stroke-width: 1; stroke-dasharray: none; stroke-linecap: butt; stroke-dashoffset: 0; stroke-linejoin: miter; stroke-miterlimit: 4; fill: rgb(58,229,227); fill-rule: nonzero; opacity: 1; white-space: pre;" ><tspan x="-42" y="-15.02" >d</tspan><tspan x="-12.43" y="-15.02" >e</tspan><tspan x="16.39" y="-15.02" >v</tspan><tspan x="-49.47" y="42.66" >n</tspan><tspan x="-20.12" y="42.66" >o</tspan><tspan x="9.81" y="42.66" >w</tspan></text>
</g>
</svg>